:SAMPLES-PER-SECOND 30
:FULLY-SPECIFIED
:DEGREES
706
root  67.4078 34.8842 11.7302 11.9781 73.7661 45.3703
RightUpLeg  -1.32834 22.7778 8.04874
RightLeg  39.4889 -6.16052 -5.69007
RightFoot  -7.08793 -0.100182 1.42022
RightToes  3.49245e-010 0 -3.6325e-017
Spine  57.7981 24.6945 5.01461
Spine1  30.1961 33.9532 -6.39004
HEad  -34.6624 -3.03519 4.25313
LeftShoulder1  10.5567 -47.289 -12.9453
LeftArm  -59.1234 -1.62853 33.7923
LeftForeArm  -27.2672 -59.9648 -22.146
LeftHand  -0.0316466 7.92454 0.57191
RightShoulder  -0.0592795 2.02609 -10.9581
RightArm  -67.6701 27.2834 0.140968
RightForeArm  -20.5732 61.5818 23.3447
RightHand  -0.972277 12.1886 -6.83235
LeftUpLeg  104.987 23.5704 126.072
LeftLeg  38.9429 -22.9787 -18.3603
LeftFoot  -16.129 0.178505 1.95576
LeftToes  -5.36635e-011 -6.70219e-011 5.24975e-011
707
root  67.089 34.7624 12.0742 21.9875 74.6247 54.6861
RightUpLeg  -1.77396 30.6555 10.2786
RightLeg  40.1381 -2.72053 -2.74386
RightFoot  -8.89945 -0.131344 3.20182
RightToes  3.49245e-010 0 -3.6325e-017
Spine  57.3892 26.2154 3.8242
Spine1  30.1212 34.2259 -5.22382
HEad  -35.7939 -3.20694 4.17939
LeftShoulder1  12.7287 -50.486 -15.7397
LeftArm  -56.4202 3.82143 37.9308
LeftForeArm  -28.9035 -62.0514 -24.3749
LeftHand  -0.0353114 6.95438 0.172047
RightShoulder  -0.0962465 2.06216 -11.7178
RightArm  -67.7885 25.7149 -0.146606
RightForeArm  -19.7547 62.2411 23.9993
RightHand  -0.746064 13.1696 -5.0792
LeftUpLeg  103.455 26.5071 123.306
LeftLeg  40.2839 -21.7257 -18.2505
LeftFoot  -16.7107 0.208696 2.30893
LeftToes  -5.36635e-011 -6.70219e-011 5.24975e-011
708
root  66.8609 34.6739 12.2707 37.5121 75.9911 69.9658
RightUpLeg  -1.33028 36.6585 12.2494
RightLeg  40.902 2.92654 2.43479
RightFoot  -10.309 -0.089211 2.32351
RightToes  3.49245e-010 0 -3.6325e-017
Spine  58.1815 25.9584 3.05868
Spine1  29.4475 33.6333 -5.69383
HEad  -37.3055 -3.46773 3.98456
LeftShoulder1  15.3303 -52.3193 -19.6907
LeftArm  -53.3396 7.83198 44.671
LeftForeArm  -31.5885 -63.3434 -26.0211
LeftHand  -0.0435913 7.18217 -0.325756
RightShoulder  -0.10409 1.88062 -11.959
RightArm  -68.3699 25.2306 -0.142189
RightForeArm  -19.6924 62.6965 24.5096
RightHand  -0.800037 12.7873 -5.53042
LeftUpLeg  101.581 28.7987 120.525
LeftLeg  41.5892 -21.9329 -19.225
LeftFoot  -17.2711 0.243287 2.69737
LeftToes  -5.36635e-011 -6.70219e-011 5.24975e-011
709
root  66.784 34.3442 12.5878 47.8586 76.0463 81.339
RightUpLeg  1.54538 42.6752 17.3921
RightLeg  42.7966 8.53581 8.10198
RightFoot  -10.1265 -0.0736167 0.785466
RightToes  3.49245e-010 0 -3.6325e-017
Spine  59.0835 26.6849 2.39806
Spine1  29.365 33.978 -5.36915
HEad  -39.0779 -4.0405 5.07618
LeftShoulder1  18.034 -52.8031 -24.3131
LeftArm  -50.5326 9.62452 52.7168
LeftForeArm  -35.6762 -63.9316 -26.9695
LeftHand  -0.0619296 8.67921 -0.5221
RightShoulder  -0.115636 1.75659 -12.2038
RightArm  -68.4142 25.1333 -0.172965
RightForeArm  -21.1744 63.0566 25.051
RightHand  -1.06566 12.0051 -7.4944
LeftUpLeg  99.4957 27.8425 120.267
LeftLeg  44.564 -23.3139 -22.3394
LeftFoot  -17.6624 0.278948 3.1246
LeftToes  -5.36635e-011 -6.70219e-011 5.24975e-011
710
root  66.7977 33.8994 12.7469 55.1973 74.8546 90.0267
RightUpLeg  6.04726 47.4969 23.2955
RightLeg  46.0709 12.6056 13.3705
RightFoot  -10.8702 -0.0911261 3.77309
RightToes  3.49245e-010 0 -3.6325e-017
Spine  60.6881 28.5621 0.794871
Spine1  27.5602 34.5796 -4.53153
HEad  -39.3023 -3.90643 5.37812
LeftShoulder1  19.8806 -51.0985 -28.9813
LeftArm  -49.1127 8.53019 58.3161
LeftForeArm  -38.0283 -63.7707 -27.0473
LeftHand  -0.0695591 7.9329 -1.14132
RightShoulder  -0.243264 3.06501 -14.0054
RightArm  -66.7843 23.0399 0.812846
RightForeArm  -23.1559 63.6095 25.87
RightHand  -1.32857 11.9352 -9.28421
LeftUpLeg  98.7559 24.952 121.301
LeftLeg  48.0321 -25.2238 -26.618
LeftFoot  -17.8122 0.327336 3.8996
LeftToes  -5.36635e-011 -6.70219e-011 5.24975e-011
711
root  67.0393 33.3838 12.8524 51.4962 73.3209 87.8014
RightUpLeg  13.2289 51.6767 33.0606
RightLeg  50.5574 13.9133 17.1121
RightFoot  -11.2292 -0.0788031 3.50671
RightToes  3.49245e-010 0 -3.6325e-017
Spine  61.2916 31.8815 -0.291477
Spine1  26.6126 37.1206 -3.24498
HEad  -38.9226 -2.33287 4.70315
LeftShoulder1  20.1963 -43.0956 -36.252
LeftArm  -53.1749 -3.46348 66.0638
LeftForeArm  -43.9111 -58.644 -21.6282
LeftHand  -0.0917112 8.87342 -1.33412
RightShoulder  -0.356444 3.9665 -15.2033
RightArm  -66.3947 21.3939 2.06746
RightForeArm  -22.9572 63.0144 25.1246
RightHand  -1.07873 12.1899 -7.53002
LeftUpLeg  99.1257 19.8091 124.529
LeftLeg  51.4649 -26.9696 -31.1375
LeftFoot  -17.5356 0.319593 3.95722
LeftToes  -5.36635e-011 -6.70219e-011 5.24975e-011
712
root  67.3092 32.9539 12.9279 53.6059 71.8846 89.9996
RightUpLeg  18.2419 54.2101 39.9022
RightLeg  54.5714 13.2859 18.7861
RightFoot  -12.1532 -0.0608859 3.3745
RightToes  3.49245e-010 0 -3.6325e-017
Spine  62.1431 34.9668 -2.69356
Spine1  22.6206 38.8172 -3.69107
HEad  -38.1168 -0.90888 4.38174
LeftShoulder1  20.1425 -39.948 -39.3406
LeftArm  -54.1636 -7.46473 69.7095
LeftForeArm  -44.5151 -58.0225 -21.2457
LeftHand  -0.121485 9.02492 -2.21947
RightShoulder  -0.603216 5.66889 -17.1952
RightArm  -65.4321 18.5611 4.15438
RightForeArm  -23.218 63.5924 25.8496
RightHand  -1.23949 11.2868 -8.99607
LeftUpLeg  99.0027 17.5132 125.334
LeftLeg  54.2365 -27.6444 -34.4566
LeftFoot  -17.7047 0.329584 4.01456
LeftToes  -5.36635e-011 -6.70219e-011 5.24975e-011
713
root  67.6366 32.4345 13.0135 54.7449 70.0992 89.9307
RightUpLeg  22.0351 57.7382 45.9589
RightLeg  58.5843 10.288 17.1444
RightFoot  -13.6713 -0.053651 1.93547
RightToes  3.49245e-010 0 -3.6325e-017
Spine  61.5019 39.139 -7.4729
Spine1  16.4788 40.3922 -5.15981
HEad  -37.0727 2.0241 4.03694
LeftShoulder1  21.9645 -44.8071 -38.2041
LeftArm  -48.4224 -1.02943 67.6909
LeftForeArm  -42.3943 -61.001 -23.8367
LeftHand  -0.0610147 9.11335 -0.41178
RightShoulder  -0.966659 8.59427 -18.892
RightArm  -65.3168 15.7 6.25976
RightForeArm  -22.6874 64.04 26.3824
RightHand  -1.22423 11.6392 -8.72672
LeftUpLeg  99.5221 15.9079 126.241
LeftLeg  57.3528 -27.3915 -37.5076
LeftFoot  -17.8229 0.34698 4.22693
LeftToes  -5.36635e-011 -6.70219e-011 5.24975e-011
714
root  67.8887 31.9117 12.9793 59.0894 68.351 94.2413
RightUpLeg  25.5979 59.666 50.1664
RightLeg  61.976 7.59534 14.6067
RightFoot  -15.3314 -0.0279383 2.00784
RightToes  3.49245e-010 0 -3.6325e-017
Spine  63.0644 42.4381 -11.597
Spine1  9.75172 41.2585 -6.65328
HEad  -36.2936 6.1743 3.30725
LeftShoulder1  21.4205 -40.6738 -41.3406
LeftArm  -50.1024 -6.48973 71.6893
LeftForeArm  -43.4418 -59.2739 -22.2553
LeftHand  -0.0710178 7.48109 -1.64605
RightShoulder  -1.12625 9.66248 -19.5037
RightArm  -65.3382 14.3926 7.96679
RightForeArm  -21.5929 64.4863 26.8952
RightHand  -1.17117 11.9837 -8.21119
LeftUpLeg  98.3932 15.3133 124.56
LeftLeg  59.2968 -25.6742 -38.033
LeftFoot  -18.6038 0.366257 4.02778
LeftToes  -5.36635e-011 -6.70219e-011 5.24975e-011
715
root  68.3056 31.4531 12.7697 65.0118 67.6878 101.263
RightUpLeg  28.9884 59.2899 53.8455
RightLeg  64.7297 5.17109 11.2823
RightFoot  -17.3055 0.0552451 3.38214
RightToes  3.49245e-010 0 -3.6325e-017
Spine  64.5848 44.4339 -14.2115
Spine1  5.44213 41.6375 -6.46341
HEad  -36.281 9.98628 2.60385
LeftShoulder1  20.2047 -35.7247 -44.3625
LeftArm  -53.5225 -12.5534 77.0384
LeftForeArm  -46.2304 -57.216 -20.5646
LeftHand  -0.0756557 7.12267 -0.532628
RightShoulder  -1.2706 10.6253 -19.9923
RightArm  -65.916 13.3117 9.17333
RightForeArm  -20.5818 65.0562 27.6051
RightHand  -1.20898 12.1185 -8.40355
LeftUpLeg  95.5021 14.6665 122.625
LeftLeg  60.247 -23.3074 -36.5739
LeftFoot  -19.3543 0.332507 3.07223
LeftToes  -5.36635e-011 -6.70219e-011 5.24975e-011
716
root  68.3693 30.6376 12.7977 64.6923 64.6548 99.2345
RightUpLeg  27.1152 62.0162 52.3076
RightLeg  69.7901 4.28663 11.9653
RightFoot  -18.3493 0.017183 2.2971
RightToes  3.49245e-010 0 -3.6325e-017
Spine  63.636 49.4809 -22.5857
Spine1  -3.61269 42.1624 -9.50289
HEad  -35.4769 12.9881 0.343759
LeftShoulder1  19.1363 -32.422 -46.124
LeftArm  -55.9153 -15.189 80.3521
LeftForeArm  -48.7626 -56.5267 -20.1048
LeftHand  0.0541443 6.83705 5.8188
RightShoulder  -1.55888 11.8655 -21.2795
RightArm  -66.4522 12.2213 10.9681
RightForeArm  -19.1873 65.7571 28.5348
RightHand  -1.17998 12.4925 -8.0479
LeftUpLeg  96.512 13.6825 122.986
LeftLeg  62.6788 -19.0776 -34.2219
LeftFoot  -20.0046 0.398703 3.67555
LeftToes  -5.36635e-011 -6.70219e-011 5.24975e-011
717
root  68.5273 29.7829 12.7244 63.7202 61.8107 99.0025
RightUpLeg  29.4726 62.5483 54.4546
RightLeg  74.5062 3.10877 11.5882
RightFoot  -19.6431 0.00159616 1.85233
RightToes  3.49245e-010 0 -3.6325e-017
Spine  61.2805 54.7378 -31.6135
Spine1  -9.76072 43.3129 -8.94709
HEad  -35.8107 18.7373 -1.97506
LeftShoulder1  18.035 -29.5126 -47.4399
LeftArm  -58.6428 -16.5599 82.9193
LeftForeArm  -47.7795 -55.9419 -19.6444
LeftHand  0.0686982 9.80454 3.25635
RightShoulder  -1.95816 13.2364 -23.0649
RightArm  -66.9037 11.1034 13.1014
RightForeArm  -16.6655 67.0463 30.4003
RightHand  -1.12164 11.9731 -7.90218
LeftUpLeg  95.6167 11.3558 121.851
LeftLeg  64.9355 -15.6775 -31.9738
LeftFoot  -20.6045 0.438861 3.89511
LeftToes  -5.36635e-011 -6.70219e-011 5.24975e-011
